# xmcd CD database file
#
# Track frame offsets:
#	183
#	23800
#	42840
#	61958
#	96078
#	121120
#	139125
#	162398
#	185558
#	212093
#	252348
#	267193
#
# Disc length: 3745 seconds
#
# Revision: 0
# Processed by: cddbd v1.5.1PL2 Copyright (c) Steve Scherf et al.
# Submitted via: CDex 1.51
#
DISCID=a70e9f0c
DTITLE=Roger Howse and Ruff Ideas - Live at Bridgett's
DYEAR=1992
DGENRE=Blues
TTITLE0=Rock Me
TTITLE1=Same Old Blues
TTITLE2=Hard to Keep a Good Man Down
TTITLE3=Fine Wine and Caviar
TTITLE4=Blind Willie McTell
TTITLE5=Rocket 88
TTITLE6=Stop Breakin' Down
TTITLE7=Everybody Gets the Blues
TTITLE8=The Thrill is Gone
TTITLE9=The Shell Game
TTITLE10=The Drifter
TTITLE11=All My Whole Life
EXTD=YEAR: 1992
EXTT0=
EXTT1=
EXTT2=
EXTT3=
EXTT4=
EXTT5=
EXTT6=
EXTT7=
EXTT8=
EXTT9=
EXTT10=
EXTT11=
PLAYORDER=
